{
  "accessors": [
    {
      "bufferView": 2,
      "componentType": 5126,
      "count": 1043,
      "max": [
        17.973213195800781,
        19.892807006835938,
        25.909980773925781
      ],
      "min": [
        -15.606346130371094,
        -21.973476409912109,
        -31.149040222167969
      ],
      "type": "VEC3"
    },
    {
      "bufferView": 2,
      "byteOffset": 12516,
      "componentType": 5126,
      "count": 1043,
      "max": [
        0.99997133016586304,
        0.9997859001159668,
        0.99991023540496826
      ],
      "min": [
        -0.99995636940002441,
        -0.99986821413040161,
        -0.99990487098693848
      ],
      "type": "VEC3"
    },
    {
      "bufferView": 3,
      "componentType": 5126,
      "count": 1043,
      "max": [
        0.99999934434890747,
        0.99988561868667603,
        0.99999982118606567,
        1
      ],
      "min": [
        -0.99996215105056763,
        -0.99985170364379883,
        -0.99989598989486694,
        1
      ],
      "type": "VEC4"
    },
    {
      "bufferView": 1,
      "componentType": 5126,
      "count": 1043,
      "max": [
        0.99550002813339233,
        0.99140000343322754
      ],
      "min": [
        0.003599999938160181,
        0.065800003707408905
      ],
      "type": "VEC2"
    },
    {
      "bufferView": 1,
      "byteOffset": 8344,
      "componentType": 5126,
      "count": 1043,
      "max": [
        0.99550002813339233,
        0.99140000343322754
      ],
      "min": [
        0.003599999938160181,
        0.065800003707408905
      ],
      "type": "VEC2"
    },
    {
      "bufferView": 1,
      "byteOffset": 16688,
      "componentType": 5126,
      "count": 1043,
      "max": [
        0.99550002813339233,
        0.99140000343322754
      ],
      "min": [
        0.003599999938160181,
        0.065800003707408905
      ],
      "type": "VEC2"
    },
    {
      "bufferView": 0,
      "componentType": 5125,
      "count": 4923,
      "max": [
        1042
      ],
      "min": [
        0
      ],
      "type": "SCALAR"
    },
    {
      "bufferView": 2,
      "byteOffset": 25032,
      "componentType": 5126,
      "count": 2440,
      "max": [
        9.9667510986328125,
        21.646202087402344,
        30.382362365722656
      ],
      "min": [
        -17.973213195800781,
        -13.462564468383789,
        -31.347606658935547
      ],
      "type": "VEC3"
    },
    {
      "bufferView": 2,
      "byteOffset": 54312,
      "componentType": 5126,
      "count": 2440,
      "max": [
        0.99985754489898682,
        0.99993938207626343,
        0.99992585182189941
      ],
      "min": [
        -0.99847602844238281,
        -0.99868553876876831,
        -0.99993836879730225
      ],
      "type": "VEC3"
    },
    {
      "bufferView": 3,
      "byteOffset": 16688,
      "componentType": 5126,
      "count": 2440,
      "max": [
        0.99999934434890747,
        0.99998152256011963,
        0.99952632188796997,
        1
      ],
      "min": [
        -0.9988364577293396,
        -0.99969750642776489,
        -0.99976205825805664,
        1
      ],
      "type": "VEC4"
    },
    {
      "bufferView": 1,
      "byteOffset": 25032,
      "componentType": 5126,
      "count": 2440,
      "max": [
        0.53322881460189819,
        0.88068902492523193
      ],
      "min": [
        0.086690068244934082,
        0.66755884885787964
      ],
      "type": "VEC2"
    },
    {
      "bufferView": 1,
      "byteOffset": 44552,
      "componentType": 5126,
      "count": 2440,
      "max": [
        0.53322881460189819,
        0.88068902492523193
      ],
      "min": [
        0.086690068244934082,
        0.66755884885787964
      ],
      "type": "VEC2"
    },
    {
      "bufferView": 1,
      "byteOffset": 64072,
      "componentType": 5126,
      "count": 2440,
      "max": [
        0.53322881460189819,
        0.88068902492523193
      ],
      "min": [
        0.086690068244934082,
        0.66755884885787964
      ],
      "type": "VEC2"
    },
    {
      "bufferView": 0,
      "byteOffset": 19692,
      "componentType": 5125,
      "count": 8850,
      "max": [
        2439
      ],
      "min": [
        0
      ],
      "type": "SCALAR"
    },
    {
      "bufferView": 2,
      "byteOffset": 83592,
      "componentType": 5126,
      "count": 2162,
      "max": [
        16.963371276855469,
        39.486740112304688,
        31.584140777587891
      ],
      "min": [
        -17.715888977050781,
        -21.93988037109375,
        -31.584136962890625
      ],
      "type": "VEC3"
    },
    {
      "bufferView": 2,
      "byteOffset": 109536,
      "componentType": 5126,
      "count": 2162,
      "max": [
        1,
        0.99967575073242188,
        0.99992763996124268
      ],
      "min": [
        -1,
        -0.99994897842407227,
        -0.99995797872543335
      ],
      "type": "VEC3"
    },
    {
      "bufferView": 3,
      "byteOffset": 55728,
      "componentType": 5126,
      "count": 2162,
      "max": [
        0.99996763467788696,
        0.99999767541885376,
        0.99999880790710449,
        1
      ],
      "min": [
        -0.99999707937240601,
        -0.99997991323471069,
        -0.99999594688415527,
        1
      ],
      "type": "VEC4"
    },
    {
      "bufferView": 1,
      "byteOffset": 83592,
      "componentType": 5126,
      "count": 2162,
      "max": [
        0.99320000410079956,
        0.90499997138977051
      ],
      "min": [
        0.36259999871253967,
        0.014899999834597111
      ],
      "type": "VEC2"
    },
    {
      "bufferView": 1,
      "byteOffset": 100888,
      "componentType": 5126,
      "count": 2162,
      "max": [
        0.99320000410079956,
        0.90499997138977051
      ],
      "min": [
        0.36259999871253967,
        0.014899999834597111
      ],
      "type": "VEC2"
    },
    {
      "bufferView": 1,
      "byteOffset": 118184,
      "componentType": 5126,
      "count": 2162,
      "max": [
        0.99320000410079956,
        0.90499997138977051
      ],
      "min": [
        0.36259999871253967,
        0.014899999834597111
      ],
      "type": "VEC2"
    },
    {
      "bufferView": 0,
      "byteOffset": 55092,
      "componentType": 5125,
      "count": 7956,
      "max": [
        2161
      ],
      "min": [
        0
      ],
      "type": "SCALAR"
    }
  ],
  "asset": {
    "extras": {
      "author": "Jaibana (https://sketchfab.com/jaibana)",
      "license": "CC-BY-4.0 (http://creativecommons.org/licenses/by/4.0/)",
      "source": "https://sketchfab.com/3d-models/bag-pbr-da3d686b38c141e1bf54f9df6ca39313",
      "title": "Bag PBR"
    },
    "generator": "Sketchfab-6.43.0",
    "version": "2.0"
  },
  "bufferViews": [
    {
      "buffer": 0,
      "byteLength": 86916,
      "byteOffset": 0,
      "name": "floatBufferViews",
      "target": 34963
    },
    {
      "buffer": 0,
      "byteLength": 135480,
      "byteOffset": 86916,
      "byteStride": 8,
      "name": "floatBufferViews",
      "target": 34962
    },
    {
      "buffer": 0,
      "byteLength": 135480,
      "byteOffset": 222396,
      "byteStride": 12,
      "name": "floatBufferViews",
      "target": 34962
    },
    {
      "buffer": 0,
      "byteLength": 90320,
      "byteOffset": 357876,
      "byteStride": 16,
      "name": "floatBufferViews",
      "target": 34962
    }
  ],
  "buffers": [
    {
      "byteLength": 448196,
      "uri": "scene.bin"
    }
  ],
  "images": [
    {
      "uri": "textures/M41113_LP2_baseColor.jpeg"
    },
    {
      "uri": "textures/M41113_LP2_metallicRoughness.png"
    },
    {
      "uri": "textures/M41113_LP2_normal.png"
    }
  ],
  "materials": [
    {
      "doubleSided": true,
      "emissiveFactor": [
        0,
        0,
        0
      ],
      "name": "M41113_LP2",
      "normalTexture": {
        "index": 2,
        "scale": 0.65415396341463417,
        "texCoord": 0
      },
      "occlusionTexture": {
        "index": 1,
        "strength": 1,
        "texCoord": 0
      },
      "pbrMetallicRoughness": {
        "baseColorFactor": [
          1,
          1,
          1,
          1
        ],
        "baseColorTexture": {
          "index": 0,
          "texCoord": 0
        },
        "metallicFactor": 1,
        "metallicRoughnessTexture": {
          "index": 1,
          "texCoord": 0
        },
        "roughnessFactor": 0.40682164634146345
      }
    }
  ],
  "meshes": [
    {
      "name": "body_M41113_LP2_0",
      "primitives": [
        {
          "attributes": {
            "NORMAL": 1,
            "POSITION": 0,
            "TANGENT": 2,
            "TEXCOORD_0": 3,
            "TEXCOORD_1": 4,
            "TEXCOORD_2": 5
          },
          "indices": 6,
          "material": 0,
          "mode": 4
        }
      ]
    },
    {
      "name": "hardware_M41113_LP2_0",
      "primitives": [
        {
          "attributes": {
            "NORMAL": 8,
            "POSITION": 7,
            "TANGENT": 9,
            "TEXCOORD_0": 10,
            "TEXCOORD_1": 11,
            "TEXCOORD_2": 12
          },
          "indices": 13,
          "material": 0,
          "mode": 4
        }
      ]
    },
    {
      "name": "straps_M41113_LP2_0",
      "primitives": [
        {
          "attributes": {
            "NORMAL": 15,
            "POSITION": 14,
            "TANGENT": 16,
            "TEXCOORD_0": 17,
            "TEXCOORD_1": 18,
            "TEXCOORD_2": 19
          },
          "indices": 20,
          "material": 0,
          "mode": 4
        }
      ]
    }
  ],
  "nodes": [
    {
      "children": [
        1
      ],
      "name": "RootNode (gltf orientation matrix)",
      "rotation": [
        -0.70710678118654746,
        -0,
        -0,
        0.70710678118654757
      ]
    },
    {
      "children": [
        2
      ],
      "name": "RootNode (model correction matrix)"
    },
    {
      "children": [
        3
      ],
      "matrix": [
        1,
        0,
        0,
        0,
        0,
        0,
        1,
        0,
        0,
        -1,
        0,
        0,
        0,
        0,
        0,
        1
      ],
      "name": "f98f99fd9e7648da907c2284b1302165.fbx"
    },
    {
      "children": [
        4
      ],
      "name": "RootNode"
    },
    {
      "children": [
        5,
        7,
        9
      ],
      "name": "M41113_LP"
    },
    {
      "children": [
        6
      ],
      "name": "body"
    },
    {
      "mesh": 0,
      "name": "body_M41113_LP2_0"
    },
    {
      "children": [
        8
      ],
      "name": "hardware"
    },
    {
      "mesh": 1,
      "name": "hardware_M41113_LP2_0"
    },
    {
      "children": [
        10
      ],
      "name": "straps"
    },
    {
      "mesh": 2,
      "name": "straps_M41113_LP2_0"
    }
  ],
  "samplers": [
    {
      "magFilter": 9729,
      "minFilter": 9987,
      "wrapS": 10497,
      "wrapT": 10497
    }
  ],
  "scene": 0,
  "scenes": [
    {
      "name": "OSG_Scene",
      "nodes": [
        0
      ]
    }
  ],
  "textures": [
    {
      "sampler": 0,
      "source": 0
    },
    {
      "sampler": 0,
      "source": 1
    },
    {
      "sampler": 0,
      "source": 2
    }
  ]
}

